<svg width="267" height="258" viewBox="0 0 267 258" fill="none" xmlns="http://www.w3.org/2000/svg">
<path d="M8.10242 38.2225C10.7479 19.2157 26.3612 4.9062 45.5097 3.64589C71.0492 1.96495 106.735 0 134 0C160.975 0 196.832 1.92328 222.867 3.59204C242.755 4.86676 258.762 20.1743 260.759 40.0025C263.414 66.3587 266.5 102.843 266.5 130C266.5 156.92 263.467 191.729 260.829 216.918C258.796 236.323 243.288 251.365 223.84 252.932C197.731 255.035 161.312 257.5 134 257.5C106.368 257.5 70.0863 254.977 44.4833 252.858C25.8161 251.313 10.7168 237.319 8.02937 218.781C4.35947 193.467 0 157.59 0 130C0 102.227 4.41759 64.6965 8.10242 38.2225Z" fill="#fff" fill-opacity="0.36"/>
<rect x="29" y="34" width="48" height="199" rx="6" fill="#F8522E" fill-opacity="0.2"/>
<rect x="68" y="29" width="48" height="199" rx="6" fill="#F8522E" fill-opacity="0.4"/>
<rect x="109" y="25" width="47" height="199" rx="6" fill="#F8522E" fill-opacity="0.6"/>
<rect x="149" y="29" width="48" height="199" rx="6" fill="#F8522E" fill-opacity="0.8"/>
<rect x="188" y="34" width="48" height="199" rx="6" fill="#F8522E"/>
</svg>
