<svg width="166" height="237" viewBox="0 0 166 237" fill="none" xmlns="http://www.w3.org/2000/svg">
<g id="Group 9">
<g id="Group 3">
<g id="Polygon 4">
<path d="M166 130.507L104.5 95L43 130.507L104.5 166.014L166 130.507Z" fill="#0099A3"/>
<path d="M166 130.507L104.5 95L43 130.507L104.5 166.014L166 130.507Z"/>
</g>
<g id="Polygon 3">
<path d="M43 201.473L104.5 236.98V165.966L43 130.459V201.473Z" fill="#007B83"/>
<path d="M43 201.473L104.5 236.98V165.966L43 130.459V201.473Z"/>
</g>
<g id="Polygon 2">
<path d="M165.923 130.459L104.423 165.966V236.98L165.923 201.473V130.459Z" fill="#00B7C2"/>
<path d="M165.923 130.459L104.423 165.966V236.98L165.923 201.473V130.459Z"/>
</g>
</g>
<g id="Group 4">
<g id="Polygon 4_2">
<path d="M123 35.507L61.5 0L0 35.507L61.5 71.0141L123 35.507Z" fill="#0099A3"/>
<path d="M123 35.507L61.5 0L0 35.507L61.5 71.0141L123 35.507Z"/>
</g>
<g id="Polygon 3_2">
<path d="M0 106.473L61.5 141.98V70.9656L0 35.4586V106.473Z" fill="#007B83"/>
<path d="M0 106.473L61.5 141.98V70.9656L0 35.4586V106.473Z"/>
</g>
<g id="Polygon 2_2">
<path d="M122.923 35.4586L61.4229 70.9656V141.98L122.923 106.473V35.4586Z" fill="#00B7C2"/>
<path d="M122.923 35.4586L61.4229 70.9656V141.98L122.923 106.473V35.4586Z"/>
</g>
</g>
</g>
</svg>
