<svg width="184" height="230" viewBox="0 0 184 230" fill="none" xmlns="http://www.w3.org/2000/svg">
<g id="Group 8">
<g id="Group 5">
<g id="Polygon 4">
<path d="M123 88.507L61.5 53L0 88.507L61.5 124.014L123 88.507Z" fill="#0099A3"/>
<path d="M123 88.507L61.5 53L0 88.507L61.5 124.014L123 88.507Z"/>
</g>
<g id="Polygon 3">
<path d="M0 159.473L61.5 194.98V123.966L0 88.4586V159.473Z" fill="#007B83"/>
<path d="M0 159.473L61.5 194.98V123.966L0 88.4586V159.473Z"/>
</g>
<g id="Polygon 2">
<path d="M122.923 88.4586L61.4229 123.966V194.98L122.923 159.473V88.4586Z" fill="#00B7C2"/>
<path d="M122.923 88.4586L61.4229 123.966V194.98L122.923 159.473V88.4586Z"/>
</g>
</g>
<g id="Group 6">
<g id="Polygon 4_2">
<path d="M184 123.507L122.5 88L61 123.507L122.5 159.014L184 123.507Z" fill="#0099A3"/>
<path d="M184 123.507L122.5 88L61 123.507L122.5 159.014L184 123.507Z"/>
</g>
<g id="Polygon 3_2">
<path d="M61 194.473L122.5 229.98V158.966L61 123.459V194.473Z" fill="#007B83"/>
<path d="M61 194.473L122.5 229.98V158.966L61 123.459V194.473Z"/>
</g>
<g id="Polygon 2_2">
<path d="M183.923 123.459L122.423 158.966V229.98L183.923 194.473V123.459Z" fill="#00B7C2"/>
<path d="M183.923 123.459L122.423 158.966V229.98L183.923 194.473V123.459Z"/>
</g>
</g>
<g id="Group 7">
<g id="Polygon 4_3">
<path d="M152 35.507L90.5 0L29 35.507L90.5 71.0141L152 35.507Z" fill="#0099A3"/>
<path d="M152 35.507L90.5 0L29 35.507L90.5 71.0141L152 35.507Z"/>
</g>
<g id="Polygon 3_3">
<path d="M29 106.473L90.5 141.98V70.9656L29 35.4586V106.473Z" fill="#007B83"/>
<path d="M29 106.473L90.5 141.98V70.9656L29 35.4586V106.473Z"/>
</g>
<g id="Polygon 2_3">
<path d="M151.923 35.4586L90.4229 70.9656V141.98L151.923 106.473V35.4586Z" fill="#00B7C2"/>
<path d="M151.923 35.4586L90.4229 70.9656V141.98L151.923 106.473V35.4586Z"/>
</g>
</g>
</g>
</svg>
